<svg version="1.1" id="Layer_1" xmlns="http://www.w3.org/2000/svg" xmlns:xlink="http://www.w3.org/1999/xlink" x="0px" y="0px"
	 width="100%" viewBox="0 0 1024 1024" enable-background="new 0 0 1024 1024" xml:space="preserve">
<path fill="#000000" opacity="1.000000" stroke="none" 
	d="
M250.979904,495.017792 
	C247.243469,493.159424 243.036560,494.515839 239.205139,493.293701 
	C237.574890,492.773712 235.069016,493.183105 235.262665,490.503815 
	C235.431305,488.170227 236.940506,486.487610 239.360123,486.086945 
	C243.086960,485.469879 246.685699,486.076904 249.983398,487.918243 
	C252.984314,489.593842 255.697937,489.441101 258.979553,488.206024 
	C264.582428,486.097351 270.444885,488.124207 276.191345,488.353424 
	C280.408630,488.521606 284.614838,489.448883 289.774048,488.128479 
	C285.723358,485.280396 281.866211,486.031067 278.359497,485.886169 
	C267.760864,485.448334 257.147217,485.360413 246.538574,485.189270 
	C244.553925,485.157227 243.170547,483.866394 241.514236,483.146576 
	C235.840591,480.680878 233.233810,482.298798 233.301773,488.295929 
	C233.331329,490.904480 232.998657,493.587830 234.716309,495.903900 
	C229.737183,497.426025 226.361740,495.091919 226.711456,490.372345 
	C226.983643,486.698761 226.436401,483.779419 223.122833,481.263336 
	C219.535126,478.539124 220.194977,477.384857 224.454254,475.457825 
	C228.219727,473.754272 231.746689,471.619965 235.824173,470.528656 
	C238.226578,469.885681 238.473740,467.361115 237.538696,465.509308 
	C232.019623,454.579163 234.730286,443.789642 237.992371,433.073792 
	C239.227219,429.017334 242.418961,426.062500 245.574707,423.365112 
	C250.667252,419.012238 255.015579,414.072540 258.710663,408.252533 
	C257.133514,405.759216 255.016464,403.697174 253.481476,401.140564 
	C250.435623,396.067596 251.158798,392.163971 255.259857,388.403503 
	C258.683441,385.264221 260.798737,381.561615 261.425171,376.797729 
	C261.828156,373.733093 263.682465,371.475159 267.760193,373.637024 
	C264.310516,376.571747 265.301361,380.533905 265.332764,384.246155 
	C265.355652,386.948669 264.627441,389.162048 261.682709,389.058533 
	C257.416351,388.908630 255.598999,390.871796 255.239395,394.844238 
	C254.854630,399.094727 257.693207,400.964630 260.817078,402.695374 
	C267.682861,406.499298 274.369934,410.675354 281.444702,414.037170 
	C287.420685,416.876831 292.719635,421.310028 299.791412,422.102112 
	C300.008881,421.997955 299.972687,421.964508 299.972687,421.964508 
	C301.044769,426.199860 304.443237,424.569611 306.979828,424.525452 
	C309.751862,424.477264 309.639465,422.099335 309.723877,420.061737 
	C309.995453,413.506805 309.165283,412.235107 301.100464,409.498932 
	C296.206207,407.838440 291.815613,405.057892 287.602539,402.455078 
	C283.076843,399.659149 277.626221,396.954834 275.826691,390.842987 
	C275.416504,389.449890 274.267517,388.038574 274.850922,386.674408 
	C277.329498,380.878876 279.568176,374.808014 285.405914,371.372803 
	C287.493378,370.144379 290.515442,369.949921 292.161102,371.110809 
	C296.985504,374.514069 302.718079,376.011292 307.618134,379.461182 
	C311.337891,382.080048 315.657745,384.495300 319.967010,386.457245 
	C324.188904,388.379395 327.052460,389.995636 326.496460,395.940765 
	C325.905029,402.264862 327.387177,408.851776 328.452209,415.242523 
	C329.516327,421.627502 329.432861,427.836914 327.568665,434.023773 
	C326.238373,438.438751 325.912933,442.781250 327.763702,447.207153 
	C328.943604,450.028748 329.164246,453.059662 327.853729,455.978271 
	C323.968536,464.630920 323.064514,473.595612 325.101471,482.833191 
	C326.362030,488.549683 325.491272,494.133667 324.104492,499.636444 
	C322.484650,506.063904 323.361908,512.124329 325.640411,518.230530 
	C327.324921,522.744873 328.989960,527.369812 329.775330,532.093262 
	C331.102539,540.075378 335.378876,546.166199 340.633453,551.886169 
	C343.012573,554.476074 346.704285,554.813232 349.149017,556.926514 
	C358.463196,564.978210 369.649231,566.313416 381.257660,566.965393 
	C389.362671,567.420654 395.637939,571.922241 400.592926,578.047729 
	C402.979126,580.997681 404.933685,584.403748 406.543701,587.855103 
	C412.081421,599.726318 421.675812,608.845947 428.098572,620.167725 
	C431.533447,626.222656 434.781586,632.429565 438.275452,638.462341 
	C444.308075,648.878845 452.476990,657.749817 458.429291,668.157410 
	C459.768555,670.499146 460.788696,672.869080 461.260010,675.560303 
	C462.580872,683.102539 464.527771,686.035278 472.016388,686.461182 
	C483.608002,687.120483 487.296265,696.364136 493.094330,703.508972 
	C493.484680,703.989990 493.846436,704.853210 493.683868,705.369446 
	C491.647705,711.836426 495.553253,717.653320 495.638519,723.885132 
	C495.684814,727.269226 497.345551,728.340881 500.552948,726.780212 
	C506.206604,724.029114 511.041718,725.550903 514.100647,731.498901 
	C516.454590,736.076111 518.073669,740.946472 518.378113,746.247375 
	C518.740051,752.548279 521.237000,755.961731 524.396484,754.769958 
	C529.411377,752.878235 526.410828,748.800110 525.954041,745.780701 
	C524.581909,736.710388 524.418823,736.735046 526.649841,733.120667 
	C526.838074,735.525391 527.335938,737.292664 527.036621,738.912659 
	C526.098633,743.988586 529.409607,746.504944 533.063110,747.938538 
	C536.475708,749.277649 538.578003,746.491333 540.549805,743.717346 
	C545.357117,736.954346 544.672485,735.229858 534.760254,731.078369 
	C538.235718,728.771362 538.645142,728.763977 541.369629,730.832275 
	C542.557678,731.734375 543.801697,732.563904 544.975342,733.483704 
	C548.307983,736.095276 550.663574,735.397217 552.313965,731.524475 
	C553.157104,729.545959 554.051025,727.571045 555.667114,726.011475 
	C560.374146,721.468994 561.617004,721.353699 566.995972,725.181152 
	C572.221252,728.899231 576.464783,727.911072 579.753418,722.200439 
	C582.342346,717.704834 586.537354,714.329224 591.301819,714.471436 
	C598.654053,714.690796 603.552612,710.840149 608.437134,706.733704 
	C612.145386,703.616089 615.936829,700.667786 619.896912,697.898987 
	C622.979248,695.743958 625.200806,692.738403 626.467529,689.307495 
	C627.419983,686.727661 628.761353,684.531189 630.417542,682.445435 
	C631.782227,680.726624 632.812195,678.961121 633.056641,676.652954 
	C633.830750,669.344971 640.171387,665.377075 647.240234,667.254822 
	C652.562378,668.668579 658.109131,666.755554 661.552002,663.598633 
	C666.214111,659.323669 671.936646,657.838989 677.050476,654.924805 
	C679.735474,653.394775 681.828796,652.039734 681.953430,648.738647 
	C682.026855,646.792419 683.326172,645.438416 684.317993,643.891479 
	C689.898376,635.188232 691.836426,626.135559 686.196533,616.679932 
	C683.025635,611.363770 681.983032,606.286621 686.395874,601.060364 
	C687.931946,599.241211 688.163696,596.748962 688.394775,594.432556 
	C689.123108,587.129944 692.626465,580.808899 695.355957,574.207825 
	C696.434875,571.598633 698.451904,570.521851 701.116333,570.078979 
	C704.216919,569.563660 705.666809,567.831055 705.115051,564.445374 
	C703.790955,556.320374 705.342407,548.262207 705.939575,540.182190 
	C706.190796,536.782471 708.607666,534.214478 709.099548,530.792725 
	C709.957397,524.826599 713.863281,519.781738 713.923889,513.275452 
	C713.962891,509.084808 721.232117,504.220764 724.360107,504.866974 
	C725.298462,503.147797 725.755371,501.307800 725.714172,499.348938 
	C714.324951,496.688721 707.556091,489.155701 703.306763,479.142914 
	C700.647644,472.877167 696.049438,467.987335 692.358093,462.481049 
	C687.714966,455.554993 685.974976,448.255402 687.164795,440.200134 
	C688.263672,432.760986 686.456543,426.149933 681.319702,420.844513 
	C675.659485,414.998657 674.998413,409.027710 678.370117,401.753174 
	C681.401306,395.213135 680.318481,393.244019 673.865417,389.867828 
	C666.340210,385.930725 665.393311,383.651001 667.710083,375.458160 
	C669.005798,370.876160 671.309204,366.332794 668.354736,361.510406 
	C667.758484,360.537262 667.554932,358.800385 666.287598,359.000610 
	C661.874329,359.697845 657.894714,357.188202 653.467224,357.726105 
	C645.042175,358.749664 636.568115,359.370575 628.114075,360.154663 
	C624.351501,360.503632 620.907532,359.630005 617.539307,357.877594 
	C606.313904,352.037445 596.358704,344.819366 588.932678,334.275146 
	C585.725830,329.721802 581.016907,326.378723 580.431580,320.050049 
	C580.034546,315.758331 580.940247,312.273804 583.160034,308.741241 
	C586.531738,303.375519 583.788452,289.556122 578.312866,286.412262 
	C584.194336,283.603912 585.791016,277.532104 589.819885,273.327240 
	C595.135315,267.779602 595.641785,250.065689 592.835083,242.583603 
	C590.914856,237.464691 588.806824,232.727539 585.287231,228.731293 
	C579.543030,222.209213 571.978455,219.599884 563.739807,216.739258 
	C554.530701,213.541656 544.575012,216.641296 535.942993,211.148178 
	C531.167053,208.108932 527.985596,210.068024 526.733337,215.067947 
	C525.550232,215.280685 524.608887,214.811462 523.782104,213.991806 
	C528.584473,204.874588 528.493225,205.420456 535.933044,206.478149 
	C542.363525,207.392334 548.406860,204.270844 553.939392,201.329025 
	C561.442993,197.339096 568.811462,195.652649 576.888611,199.054535 
	C577.642456,199.372055 578.589478,199.753464 579.303528,199.564270 
	C588.841248,197.036606 598.323425,199.405212 607.370239,201.279449 
	C618.063354,203.494751 627.793213,202.438889 638.404846,200.620956 
	C651.954468,198.299683 664.200500,204.975555 675.350403,212.875305 
	C686.213501,220.571808 697.200745,228.161392 709.036865,234.291748 
	C717.238708,238.539795 722.693298,245.896851 729.851562,251.235916 
	C739.121704,258.150085 747.494141,266.442261 758.530273,270.776520 
	C759.458313,271.140991 760.403503,271.601044 761.373047,271.699921 
	C779.114624,273.509644 789.201660,284.210632 795.952576,299.902710 
	C801.059265,311.772827 805.523743,324.193542 813.746460,334.403076 
	C819.251465,341.238220 823.650208,348.334015 826.688538,356.650482 
	C829.463684,364.246277 834.651978,370.826355 837.738892,378.434296 
	C839.555603,382.911896 839.743469,387.229614 839.655212,392.011871 
	C839.269958,412.882660 831.651367,432.889343 832.742188,453.958069 
	C833.035950,459.630798 830.815552,465.401764 830.098572,471.171082 
	C829.691223,474.448517 829.391663,477.940826 830.639343,481.084442 
	C834.092834,489.785828 832.921570,498.823792 832.898376,507.777039 
	C832.894165,509.404327 832.663574,511.253998 831.875732,512.619080 
	C827.654297,519.933411 827.195740,528.926392 821.424194,535.568237 
	C819.693359,537.560120 818.468140,540.228577 818.416077,542.882019 
	C818.289978,549.296448 817.310974,555.244141 813.838440,560.929016 
	C811.752136,564.344604 814.506653,567.672241 816.871399,570.281372 
	C820.304504,574.069275 820.932251,578.351929 819.120300,582.823425 
	C815.483459,591.798157 813.453064,592.343384 806.676392,589.894226 
	C802.973816,588.556091 789.846497,595.400269 788.664124,598.818115 
	C787.987549,600.774048 789.451050,601.460205 790.766052,602.214783 
	C798.073853,606.407898 798.555969,607.347046 797.623413,616.111267 
	C796.556152,613.415039 796.855286,610.523743 794.661377,608.797485 
	C792.552002,607.137817 789.989624,607.444580 787.501343,607.208313 
	C782.750366,606.757385 782.965515,611.430359 780.876221,613.591248 
	C779.257385,615.265564 780.769653,617.389832 782.810120,618.905151 
	C784.186157,619.927063 785.263000,621.730103 785.804871,623.400696 
	C786.474731,625.465942 787.402710,626.526245 789.499207,627.469666 
	C793.208435,629.138733 794.940552,632.619141 793.706909,636.591003 
	C791.920654,642.342346 792.964722,648.106384 792.615662,653.833740 
	C792.083923,662.559387 792.631287,672.461914 785.283386,678.894348 
	C779.535950,683.925659 772.461060,687.269836 769.839661,695.367676 
	C769.180359,697.404297 766.307190,698.755371 764.386780,700.343384 
	C762.572693,701.843323 760.548462,703.285156 760.226379,705.759216 
	C759.320129,712.721313 754.506165,715.534973 748.494019,716.971008 
	C739.425964,719.136902 731.076172,729.045288 731.035217,738.434753 
	C731.016418,742.757935 729.603882,746.065308 726.538940,749.067810 
	C719.770691,755.698792 712.497559,761.815063 706.523743,769.267395 
	C702.625061,774.130981 696.860291,776.308533 691.115601,778.085327 
	C686.691650,779.453613 683.129028,776.901245 681.835205,773.208679 
	C679.309387,765.999878 673.787964,765.161255 667.601685,764.964783 
	C663.710022,764.841125 660.002808,764.119324 656.590149,762.142761 
	C655.880676,761.732056 654.970154,761.113159 654.306152,761.264587 
	C646.861023,762.963074 639.470764,759.021362 632.063354,761.085205 
	C629.345886,761.842346 626.964111,761.478577 624.383423,760.264404 
	C620.140198,758.268127 618.317749,759.381592 617.338379,763.994141 
	C617.027893,765.456055 616.944336,766.981567 616.493347,768.393738 
	C616.099487,769.627075 615.335083,770.742065 614.662964,772.048035 
	C612.875610,765.911621 610.650085,760.254822 607.815674,754.695251 
	C606.150024,751.428101 606.093750,747.092163 604.700500,743.387573 
	C602.714172,738.105896 602.731201,732.075623 598.261780,727.673279 
	C597.274902,726.701233 597.867798,724.160889 597.664856,722.350281 
	C597.188782,718.103149 593.284363,717.712585 590.485291,716.847229 
	C588.200378,716.140869 586.021484,718.389465 585.478577,720.731262 
	C584.888367,723.276917 584.820618,726.079468 585.829529,728.611267 
	C588.046265,734.173767 590.541748,739.588501 591.464600,745.630676 
	C591.910461,748.549683 594.268188,750.764648 594.448547,754.230286 
	C594.829468,761.549805 591.574951,766.453003 585.650452,769.495789 
	C582.422363,771.153748 581.736389,773.060059 582.132263,776.137512 
	C582.630371,780.008972 580.489136,781.274353 577.492554,783.795654 
	C570.682556,789.525818 562.842102,788.233337 555.524719,790.130493 
	C553.067261,790.767517 550.951111,792.024170 548.894348,793.506775 
	C538.363525,801.097961 527.938904,800.404053 518.937378,791.465515 
	C515.882751,788.432190 512.506836,786.238953 508.151398,785.698303 
	C505.391418,785.355652 503.074951,784.027771 501.312164,781.900879 
	C498.993256,779.103027 496.447174,777.419434 492.662048,779.096497 
	C489.048309,780.697754 487.722870,783.859924 487.018982,787.328003 
	C486.667847,789.057861 486.957764,790.917908 486.045380,792.706665 
	C486.045380,788.435730 486.045380,784.164734 486.024231,779.440063 
	C486.003052,778.986389 485.983856,779.009094 485.983856,779.009094 
	C488.803375,779.172424 488.705170,777.058350 488.715424,775.278687 
	C488.735168,771.851318 489.768158,768.854980 491.533783,765.912170 
	C493.880402,762.000916 492.250671,757.390076 493.321472,753.009827 
	C494.516388,753.756165 493.548737,755.774414 495.324554,756.124939 
	C497.294983,755.885437 497.743958,754.256165 496.885925,752.924072 
	C493.799072,748.131592 494.798737,742.912109 495.177490,737.864197 
	C495.486694,733.743530 494.200287,732.718628 490.100677,732.039673 
	C482.773773,730.826111 475.214172,730.248291 468.320648,726.792725 
	C466.411499,725.835754 463.758789,726.279968 461.444122,726.233337 
	C457.946899,726.162842 454.435547,726.044922 450.950409,726.265869 
	C440.871521,726.904785 432.761261,731.254395 425.784515,738.660583 
	C419.231171,745.617310 418.584015,754.763733 415.605286,762.979919 
	C414.048767,767.273438 414.875977,772.465210 418.810181,775.999451 
	C415.856750,778.214783 414.945557,776.044983 413.634460,775.365173 
	C411.407257,774.210510 409.261200,772.699646 406.632355,774.135010 
	C403.783478,775.690613 403.640961,778.508362 404.001953,781.142639 
	C404.565552,785.254822 405.228851,789.418457 406.498260,793.351013 
	C407.861420,797.573730 407.993927,801.550659 406.016754,805.457764 
	C402.914124,811.588989 404.851044,816.677551 408.891541,821.494873 
	C410.214691,823.072510 412.676056,824.792664 410.928192,826.977722 
	C409.350952,828.949341 406.634064,827.731995 404.923859,826.663757 
	C395.483734,820.767334 384.984070,816.815491 375.831482,810.361389 
	C367.361847,804.388855 357.494904,801.810791 347.406342,800.061768 
	C345.766907,799.777527 344.141449,799.408752 342.498077,799.151917 
	C331.459259,797.426331 323.624084,790.720520 315.484528,783.545959 
	C305.559448,774.797424 296.364227,765.107666 285.276672,757.686951 
	C283.623047,756.580139 281.902985,755.320007 281.229218,753.365356 
	C279.068604,747.097290 273.761383,743.596375 268.969086,739.897522 
	C259.080109,732.264954 252.145050,722.575317 247.402817,711.206604 
	C245.158981,705.827454 242.011490,701.926880 235.853378,700.808105 
	C229.546722,699.662415 227.001846,694.278503 230.154831,688.721313 
	C231.789398,685.840332 232.372284,682.835449 232.891190,679.738770 
	C233.335510,677.086914 232.581299,674.827209 230.262924,673.181641 
	C224.656738,669.202698 222.188492,663.030029 219.814209,657.049561 
	C217.929626,652.302551 220.879272,648.083679 224.000473,644.935669 
	C228.466934,640.430786 231.440430,634.697083 236.488205,630.697388 
	C240.371185,627.620667 237.424500,624.485779 235.385025,621.040039 
	C238.384918,621.127380 240.424774,622.404114 242.033752,623.611511 
	C247.042374,627.369812 251.921707,629.355835 258.387024,626.971802 
	C265.756836,624.254395 271.705170,617.254700 271.758026,609.439514 
	C271.823364,599.780090 271.646606,590.118896 271.744110,580.460083 
	C271.803528,574.570374 275.178894,571.474060 280.672211,571.716003 
	C282.455078,571.794617 283.381073,572.711304 284.710510,573.861816 
	C293.971069,581.875671 295.225525,592.027466 293.375000,603.228699 
	C293.106995,604.850891 293.323944,606.554077 293.325562,608.219788 
	C293.328308,611.071777 293.610718,613.692932 297.450409,613.673279 
	C300.571533,613.657349 302.576904,613.824646 304.257080,609.500793 
	C306.277557,604.301147 307.148407,599.343628 306.530914,594.220398 
	C305.696472,587.297363 304.551483,580.447876 300.558746,574.183533 
	C298.777374,571.388611 297.319946,568.578735 294.960724,566.061157 
	C290.582886,561.389587 285.488983,559.171082 279.205719,559.276672 
	C278.084351,559.295532 276.848083,559.478638 275.846619,558.201782 
	C275.994934,554.441101 280.156250,554.942078 282.124756,553.211670 
	C286.645874,549.237610 290.495667,545.446350 290.712097,539.106689 
	C290.755585,537.832825 291.703613,537.060120 292.179138,536.041870 
	C293.928101,532.297363 294.862396,528.465759 291.913208,524.806763 
	C291.025116,523.704895 290.629944,522.473328 290.706268,521.101868 
	C291.173340,512.710938 285.204742,508.878906 279.108398,505.638123 
	C275.943085,503.955475 273.869781,507.814667 271.849609,509.506287 
	C270.360687,510.753082 271.586426,513.032104 273.528992,514.846069 
	C279.330505,520.263550 281.702179,527.399048 280.150665,535.114136 
	C278.008270,545.767456 260.857635,550.746704 251.998047,544.388855 
	C247.549149,541.196228 245.395721,536.872192 243.268997,532.610352 
	C241.047653,528.158813 245.759186,524.863037 247.523849,521.157654 
	C249.171280,517.698486 249.435349,510.607513 247.250626,509.086151 
	C242.986115,506.116516 236.635071,508.700714 235.744278,513.768005 
	C234.253845,509.070770 236.559891,505.196503 242.146255,504.456848 
	C247.028549,503.810364 250.487732,503.004028 248.230804,496.894379 
	C247.630310,495.268738 249.175095,495.086578 250.910034,495.241028 
	C262.660339,501.532288 274.552246,497.418274 286.115295,498.202911 
	C274.398895,497.144714 262.789124,494.855103 250.979904,495.017792 
M742.557678,667.939514 
	C743.611206,668.161438 744.776428,668.005920 745.333374,667.204468 
	C749.286926,661.515869 755.757446,657.155640 754.738586,648.820557 
	C754.383606,645.916809 754.100281,642.643555 758.828491,642.533081 
	C761.890442,642.461670 764.182068,640.849976 764.560547,637.439209 
	C764.943787,633.985535 764.109619,631.120483 760.572876,629.711670 
	C754.097778,627.132446 748.333496,623.065308 742.573792,619.431702 
	C735.640137,615.057495 728.223389,611.137695 722.062256,605.455505 
	C718.964661,602.598633 714.338440,604.115356 711.206970,608.771851 
	C709.700439,611.011963 709.463684,613.886597 712.112915,615.340027 
	C715.614746,617.261353 717.736572,621.168701 722.224243,621.765991 
	C723.853516,621.982910 725.440063,623.464783 726.916809,624.922424 
	C729.166687,627.143127 732.672058,628.091797 735.644348,629.580566 
	C735.854980,629.163513 736.065613,628.746460 736.276245,628.329407 
	C729.889343,624.291687 723.552551,620.171387 717.090820,616.257263 
	C714.533997,614.708557 711.895142,613.627869 714.080688,609.871643 
	C716.151062,606.313293 718.580811,607.385925 721.203247,608.982056 
	C733.712830,616.595825 746.264709,624.141052 758.727356,631.830811 
	C764.120605,635.158569 764.079224,635.759277 759.464478,640.703186 
	C757.035645,640.727844 755.444763,638.558044 752.715210,638.028809 
	C754.248535,644.725830 753.701355,650.969727 750.500793,656.956177 
	C748.262695,661.142395 745.008484,664.455566 741.256104,668.128479 
	C733.843445,671.884399 726.514893,671.560059 719.431274,667.378052 
	C712.140625,663.073914 705.075500,658.380127 697.710205,654.212891 
	C693.027832,651.563599 689.319214,649.004211 693.112122,643.071350 
	C693.134521,643.036316 692.902405,642.838562 692.789185,642.716797 
	C686.437012,646.395508 685.754761,649.693787 691.336548,653.315002 
	C699.803467,658.807983 708.642822,663.739929 717.451050,668.683777 
	C719.359619,669.754883 720.573853,671.948486 723.403076,671.760620 
	C728.202698,671.441833 733.043823,671.562378 737.859070,671.733276 
	C740.669250,671.832947 741.768311,670.503723 742.557678,667.939514 
M787.162537,419.856354 
	C787.527771,423.240387 786.956299,426.648468 789.621521,429.715668 
	C792.044250,432.503662 794.722534,431.789642 797.368652,431.413025 
	C800.057617,431.030273 799.385681,428.512390 799.713745,426.593109 
	C800.701355,420.815491 797.658325,415.574249 795.198181,411.520996 
	C790.927185,404.484406 789.760010,396.604462 786.542664,389.369568 
	C783.442200,382.397369 780.530823,379.561310 774.372070,380.311829 
	C771.952759,380.606628 771.172424,382.863007 768.915894,383.442993 
	C764.277466,384.635254 759.958801,387.309509 755.293396,388.093933 
	C750.412537,388.914551 746.928406,392.320953 742.466064,393.923981 
	C738.424805,395.375763 733.829407,396.890045 729.831909,398.079895 
	C725.053467,399.502167 721.464722,403.291595 716.126343,403.541718 
	C710.342468,403.812744 708.643921,408.499084 712.209106,412.857727 
	C713.047913,413.883179 713.298340,414.865509 713.313354,416.009583 
	C713.366638,420.074707 715.750305,423.529877 717.257996,426.903534 
	C719.234070,431.325287 719.949951,436.146179 722.250244,440.398590 
	C722.748169,441.318970 722.247070,442.799957 723.559570,443.373657 
	C723.920593,443.531464 724.647583,443.401825 724.917603,443.123596 
	C726.144531,441.858978 725.110718,440.653259 724.648254,439.466888 
	C721.507812,431.408997 718.344604,423.359863 715.199097,415.303925 
	C712.684570,408.864136 713.317444,407.391541 719.866272,404.809021 
	C725.432434,402.614014 731.042542,400.530670 736.613892,398.348785 
	C749.928223,393.134521 763.234192,387.898773 776.536072,382.652924 
	C779.070679,381.653351 781.197510,381.053131 782.487793,384.562622 
	C787.424011,397.988708 792.421387,411.395081 797.651123,424.708649 
	C799.009766,428.167480 796.664795,428.799255 794.718262,429.822174 
	C792.070923,431.213470 791.165039,429.191803 790.424011,427.239258 
	C789.367615,424.455933 788.975220,421.399933 786.858887,418.256287 
	C784.050110,409.406067 780.359070,400.932526 776.206665,392.180298 
	C768.573242,395.112823 761.336914,397.892792 754.261536,400.610901 
	C753.808777,403.146210 754.991211,404.856323 755.712708,406.682068 
	C759.074585,415.189362 762.405029,423.709473 765.838379,432.187897 
	C766.883911,434.769745 766.198853,436.193329 763.608582,437.159210 
	C761.042114,438.116150 759.640747,437.572174 758.701477,434.891937 
	C756.449524,428.465729 754.084656,422.073547 751.550537,415.753815 
	C749.961121,411.789948 748.759583,407.616302 746.067871,403.629883 
	C738.203857,406.836914 730.468750,409.991364 722.597595,413.201324 
	C724.955505,419.418182 727.035461,425.021515 729.205200,430.589844 
	C731.439514,436.323761 733.833557,441.996094 736.024658,447.746063 
	C738.269165,453.636047 737.985535,454.054565 731.529236,455.816132 
	C729.196533,453.220612 729.480591,449.097412 726.743347,446.587494 
	C724.810181,451.103455 727.955078,453.729980 730.238281,456.349396 
	C732.488708,458.931213 738.235474,457.808105 738.432800,454.878601 
	C738.700378,450.905609 740.055603,446.495819 736.210327,443.185150 
	C735.172729,442.291870 734.923157,441.000458 734.614319,439.652679 
	C732.939636,432.343781 730.249451,425.395844 726.626282,418.826660 
	C725.493896,416.773468 724.717651,413.851044 727.038757,413.242279 
	C732.702820,411.756836 737.542114,407.941742 743.515320,407.601135 
	C745.584778,407.483093 747.833435,408.506012 747.973450,410.497498 
	C748.242920,414.329193 749.621521,417.576965 750.924683,421.081116 
	C751.800354,423.435852 754.441406,424.956848 754.113647,427.453369 
	C753.551208,431.737488 755.980957,434.530884 758.174194,437.611725 
	C760.835266,441.349792 764.297424,441.275482 766.756714,437.337646 
	C768.118774,435.156738 767.998596,432.728912 767.481506,430.557648 
	C765.702698,423.088470 762.178528,416.266815 758.548523,409.587067 
	C756.143555,405.161407 757.907532,400.398071 762.897217,399.701996 
	C763.875183,399.565613 765.301575,399.725006 765.745483,399.149597 
	C768.742310,395.265076 772.883545,397.028320 776.523560,396.207550 
	C778.947266,403.326111 781.226074,409.981384 783.473816,416.647125 
	C784.058533,418.380829 785.567444,418.608643 787.162537,419.856354 
M607.970459,262.007538 
	C607.970459,262.007538 608.264709,262.305542 608.328674,262.838257 
	C609.878174,265.170197 612.299744,264.625488 614.515015,264.676575 
	C619.746338,264.797211 624.676270,263.987701 629.290955,268.682373 
	C633.880127,273.351013 635.221741,274.613373 632.436401,281.278290 
	C629.993713,281.330414 628.242554,280.389099 625.993225,279.025940 
	C619.475769,275.076233 611.598267,274.442383 604.266052,272.493774 
	C602.235657,271.954193 601.306702,274.824524 599.183472,275.248962 
	C593.297729,276.425598 588.783508,281.828522 588.216675,287.906158 
	C587.370972,296.974182 594.368469,307.523621 603.430359,309.437256 
	C608.842468,310.580139 613.623108,314.493866 619.671631,312.521362 
	C619.976685,314.093567 620.136658,315.051575 620.350830,315.997284 
	C621.105774,319.330902 626.801331,321.409698 628.984802,318.909271 
	C632.063721,315.383423 634.258972,311.045258 636.283081,306.976562 
	C637.964233,303.597382 639.146484,299.615265 641.259155,296.516510 
	C645.682068,290.029297 646.148865,282.359436 646.972656,275.331940 
	C647.433044,271.404480 645.691467,265.516632 641.512817,261.493683 
	C631.690186,252.036942 619.879272,251.246811 607.479065,252.564117 
	C604.766174,252.852310 604.433899,255.651047 604.286621,258.107697 
	C604.135620,260.626251 605.035095,261.925018 607.970459,262.007538 
M665.792053,712.871826 
	C667.156799,712.764465 667.678528,713.775391 668.522339,714.616028 
	C674.468018,720.540222 681.916809,722.595337 690.095825,722.690186 
	C693.111084,722.725159 695.266174,720.616943 697.940063,719.794922 
	C707.080566,716.984924 713.521667,710.236145 715.197815,701.640259 
	C717.097595,691.897278 717.603149,681.063599 709.535400,672.803833 
	C703.868408,667.001892 697.565491,662.386963 688.979187,661.170166 
	C681.809448,660.154053 675.653931,662.822021 669.977478,665.740967 
	C661.118530,670.296448 653.145691,682.804871 655.312622,693.953613 
	C655.653137,695.705383 656.427307,696.771423 658.230957,696.647827 
	C660.416931,696.498047 663.793457,697.755249 664.274414,694.836792 
	C664.853699,691.321533 667.210999,689.015869 668.726929,686.293457 
	C672.808350,678.964355 678.591736,673.560730 688.032959,674.719788 
	C689.484436,674.897949 691.145264,674.487793 691.933228,676.241211 
	C692.723328,677.999268 691.466980,679.319214 690.426147,680.122192 
	C684.955566,684.342896 680.790283,689.811829 675.998413,694.677490 
	C670.831909,699.923645 663.361023,703.656250 664.504150,712.900574 
	C661.407227,712.501770 662.413940,709.050171 660.893494,707.840271 
	C654.505432,702.756836 647.689636,698.513977 639.071106,698.218506 
	C635.632080,698.100586 632.670837,699.657715 629.493347,700.089294 
	C618.679688,701.557922 612.185730,708.199219 607.805176,717.402466 
	C605.759644,721.700012 607.579346,725.212646 611.762207,725.255432 
	C609.057617,723.486267 609.398743,721.460693 610.154114,718.991577 
	C611.554932,714.411987 614.614197,711.124207 618.159363,708.403809 
	C627.373352,701.333374 637.544312,697.677246 648.804077,703.045715 
	C659.851562,708.313049 665.390686,717.751282 665.978882,729.769165 
	C666.503967,740.496338 657.629822,751.818665 647.176819,754.763123 
	C634.701782,758.277161 622.264771,753.469543 616.017700,742.938477 
	C614.649841,740.632446 615.157654,739.424133 617.143677,738.033630 
	C623.158752,733.822510 629.643921,730.417053 635.987305,726.764343 
	C641.551758,723.560120 647.068420,720.272888 652.539307,717.061584 
	C648.837646,709.111816 639.511230,706.762329 630.609863,709.270691 
	C622.666016,711.509155 616.369995,718.474854 616.590149,725.221008 
	C618.250671,723.211426 619.962341,721.639404 621.314819,719.504578 
	C624.465820,714.530640 629.967957,712.101196 635.045105,709.989380 
	C640.583801,707.685608 644.391724,712.788025 648.925293,715.171021 
	C647.234558,716.654541 646.083862,718.415344 644.533203,718.902161 
	C634.976074,721.902588 628.306946,730.051453 618.639526,733.032104 
	C615.354858,734.044739 612.358337,737.232727 613.311218,742.020325 
	C614.323364,747.105835 623.716980,757.393372 628.887451,757.699280 
	C635.686584,758.101562 642.608032,758.289673 649.333191,757.436768 
	C653.795898,756.870850 655.727051,750.850220 660.746460,750.150330 
	C661.175903,750.090454 661.498352,748.800964 661.754761,748.043518 
	C662.826111,744.877258 664.515869,742.120605 666.770630,739.636047 
	C669.285278,736.864929 669.879944,722.297058 667.020630,720.011169 
	C664.289978,717.828247 664.534851,715.695923 665.792053,712.871826 
M684.134094,300.720245 
	C684.245789,302.719299 685.212830,303.629425 687.302734,303.648926 
	C690.882629,303.682251 690.948547,299.856354 693.220276,298.371216 
	C694.142151,297.768555 693.919617,295.622894 692.469421,294.461761 
	C691.221497,293.462555 689.825745,292.487427 688.971863,291.188416 
	C686.878113,288.002991 681.048828,287.101196 683.752258,280.566315 
	C678.667297,286.115173 678.650757,286.135406 683.403809,290.021210 
	C684.810852,291.171478 686.385071,292.116241 687.801331,293.256195 
	C689.504395,294.626953 692.133789,295.550720 690.171570,298.688995 
	C688.473267,301.405273 686.515686,301.742493 683.610291,299.462402 
	C681.268005,297.603851 678.937683,295.729858 676.579163,293.892151 
	C675.003784,292.664703 673.633301,292.706512 672.346802,294.453308 
	C666.429260,302.487976 660.240356,310.333252 654.584900,318.546783 
	C650.875183,323.934479 652.886108,329.620514 658.839172,332.432983 
	C659.886414,332.927734 661.030151,333.218628 662.130432,333.600586 
	C664.212097,334.323212 664.341736,335.855347 663.764648,337.635162 
	C663.233521,339.273132 662.224670,339.940125 660.366577,339.729034 
	C654.015991,339.007477 646.749268,333.001251 645.085144,326.907837 
	C643.515503,321.160431 645.935669,316.466370 649.153015,312.066986 
	C655.198792,303.800201 661.341736,295.604523 667.513123,287.286469 
	C666.219238,286.210266 665.412415,285.627319 664.710266,284.937714 
	C662.985168,283.243591 659.629883,282.338501 662.178101,278.705750 
	C664.809875,274.953766 666.633484,277.883026 668.700378,279.191010 
	C672.171753,281.387787 673.269775,280.755981 674.246216,275.356720 
	C670.380310,275.356720 666.618164,275.419464 662.859314,275.334961 
	C660.295776,275.277283 659.226196,276.416992 659.306702,278.937866 
	C659.385925,281.417877 659.006042,283.948700 660.997253,285.992432 
	C661.961304,286.981903 662.836670,288.507263 661.786682,289.563721 
	C659.472839,291.891785 659.540710,295.526520 656.435120,297.632751 
	C654.529175,298.925385 652.222717,300.869965 651.902893,304.216705 
	C651.705750,306.279449 649.705261,308.571625 647.907593,309.993652 
	C644.461609,312.719574 643.090393,316.225677 642.293701,320.307648 
	C640.345093,330.293060 646.616760,335.822968 653.423279,340.971069 
	C656.072021,342.974487 663.522461,341.753754 666.177917,338.987183 
	C665.114563,342.865601 667.942871,345.533417 668.140869,348.742859 
	C668.703125,357.857544 674.419678,363.319885 682.003540,366.159607 
	C686.248291,367.748993 687.614685,369.417511 687.300476,373.445923 
	C686.998474,377.316925 691.153809,377.300110 692.951660,379.389282 
	C694.067566,380.686096 695.862427,378.689148 697.410095,377.629211 
	C702.743103,373.976898 707.023926,369.192261 711.353882,364.621002 
	C715.157471,360.605560 720.472351,358.520355 723.660522,354.027679 
	C725.578979,351.324280 727.363647,348.422485 728.599609,345.363800 
	C730.254883,341.267120 730.240906,336.961823 728.583130,332.730072 
	C727.970276,331.165558 727.194763,331.050659 726.000000,332.000000 
	C726.000000,332.000000 726.003784,332.007751 725.925903,331.211884 
	C725.697998,329.907837 725.864563,328.328125 725.177429,327.345032 
	C721.064270,321.460114 716.151611,316.407959 709.815918,312.776550 
	C706.989258,311.156372 704.279663,310.063110 700.941406,310.318817 
	C697.397339,310.590332 695.256104,312.790222 694.586426,315.658630 
	C693.790405,319.068604 697.020813,322.078552 699.343567,322.229614 
	C706.005859,322.662903 709.670593,326.909058 713.770447,331.047089 
	C716.613098,333.916199 717.317627,339.747192 714.895386,343.003265 
	C713.332520,345.104187 711.858398,345.934204 709.745483,343.526276 
	C705.778259,339.005035 701.475769,334.833771 696.888672,330.904724 
	C691.948242,326.673065 682.101624,324.734467 677.120239,327.390839 
	C671.983154,330.130188 667.245239,336.758545 660.805542,329.444031 
	C660.720642,329.347656 660.484558,329.393158 660.323730,329.353577 
	C655.640991,328.200989 653.878418,323.721710 656.935059,319.950012 
	C661.371399,314.475891 663.894836,307.532745 669.855469,303.228485 
	C670.936646,302.447723 671.378845,301.188995 671.757141,299.837860 
	C672.814575,296.060913 675.373474,295.586304 678.398560,298.463165 
	C679.996399,299.982758 681.705872,301.062500 684.134094,300.720245 
M316.947815,696.688110 
	C319.620575,696.718323 319.804199,694.942993 319.631012,692.948364 
	C319.370880,689.952026 317.868439,687.708618 314.813049,687.539978 
	C310.616089,687.308289 308.097046,684.905762 305.775024,681.888245 
	C304.878174,680.722656 303.967285,679.265320 302.722015,678.722534 
	C297.057648,676.253113 300.397980,671.474243 299.876068,667.809509 
	C299.345947,664.087219 303.302521,664.866577 305.194122,663.094849 
	C306.075714,664.861389 306.457123,666.424133 307.421753,667.424377 
	C312.338135,672.522583 317.451691,677.430481 322.379395,682.518127 
	C323.326782,683.496216 324.295776,683.770996 325.458679,683.746094 
	C333.023407,683.584473 341.158142,685.761536 346.503021,678.433899 
	C348.393951,678.809998 348.674622,680.668213 350.264648,680.624023 
	C355.194946,680.487000 356.912384,685.231262 360.325409,687.419312 
	C361.623566,688.251587 360.951935,689.343567 359.871185,690.622864 
	C354.887329,696.522400 350.064270,702.569946 345.432404,708.750854 
	C341.313202,714.247742 339.813080,714.567566 333.762268,711.073181 
	C331.850647,709.969116 329.766357,709.450439 328.058319,707.696533 
	C326.771790,706.375427 324.532471,706.355286 322.830719,708.367798 
	C319.793732,711.959290 320.422638,716.413330 324.437378,719.786499 
	C327.719940,722.544373 332.246613,724.983398 326.944580,730.235657 
	C325.302490,731.862305 325.899231,735.156616 326.694305,737.468140 
	C327.789581,740.652405 332.688293,742.775513 334.154877,740.817444 
	C335.596741,738.892395 338.012207,738.653503 339.316772,736.423645 
	C340.712769,734.037476 343.483582,733.679626 345.235382,736.662048 
	C346.260925,738.408020 347.613525,739.086731 349.366608,738.441223 
	C354.290588,736.628113 355.504761,731.361816 351.586182,727.756226 
	C348.393494,724.818481 348.933441,722.413025 351.799377,720.034912 
	C356.984161,715.732849 361.821533,711.176758 364.964111,705.078247 
	C365.857239,703.345154 366.712189,701.418152 368.102051,700.144958 
	C374.620941,694.173401 375.994232,685.682556 369.911957,679.288757 
	C365.609833,674.766296 360.783173,669.337952 352.968781,671.382568 
	C350.391602,672.056824 348.419861,671.257935 348.747345,668.317444 
	C350.080780,656.344543 341.969360,649.971497 334.055145,643.669250 
	C332.004944,642.036621 330.639984,640.686768 330.043427,638.069519 
	C328.960541,633.318176 323.464478,631.241882 319.695679,634.241333 
	C316.268097,636.969238 312.376282,638.955322 308.936005,641.752136 
	C305.293243,644.713501 303.256622,649.464233 298.388672,651.036682 
	C292.548950,652.922974 289.217529,658.331177 287.879547,663.114502 
	C285.588318,671.305603 287.350250,679.465088 292.686829,687.021545 
	C296.915497,693.009216 303.501038,695.075745 308.755127,699.233337 
	C310.300385,700.456116 314.327332,701.341003 316.003479,697.064819 
	C316.003479,697.064819 316.242035,696.769043 316.947815,696.688110 
M789.726379,538.979492 
	C788.288757,531.020813 777.756897,521.621765 770.074036,521.304443 
	C764.587341,521.077881 759.083069,521.254578 753.586914,521.294128 
	C752.116089,521.304749 750.653687,521.192871 749.318604,522.238831 
	C742.928894,527.244568 737.039124,531.768250 734.476013,540.783569 
	C732.361694,548.220764 732.214722,554.639465 734.002563,561.646606 
	C729.434875,562.447876 723.147461,557.028687 722.644409,552.317871 
	C721.614746,542.676331 725.242798,534.727600 730.953308,527.372681 
	C733.199219,524.480042 733.034363,521.267822 730.457581,518.851685 
	C728.481323,516.998657 725.632385,516.293457 723.122375,518.206665 
	C715.897522,523.713623 712.453674,532.120544 710.801697,540.125488 
	C709.396057,546.937195 708.291016,554.758545 712.873291,562.116516 
	C717.739563,569.930603 722.560730,576.397949 732.811768,575.721008 
	C733.967773,575.644653 735.253967,575.690308 736.042786,576.702881 
	C737.738281,578.879517 740.081726,578.610596 742.417236,578.684937 
	C745.897217,578.795654 750.004150,577.419189 752.710449,579.371704 
	C756.430176,582.055298 760.172180,581.665161 764.080750,581.697205 
	C767.560425,581.725769 770.798889,581.894714 774.110962,583.684998 
	C777.469727,585.500549 782.021667,586.148499 784.871765,583.164612 
	C787.605896,580.302063 787.561401,576.110168 785.301147,572.467957 
	C784.430542,571.065002 784.081543,570.052429 785.359131,568.520996 
	C788.872986,564.308960 790.404907,559.514526 789.793945,553.848694 
	C789.297241,549.241699 789.705627,544.537109 789.726379,538.979492 
M762.020752,501.237274 
	C755.524597,501.266296 749.028503,501.306427 742.532349,501.321350 
	C735.225952,501.338135 735.488464,501.338470 735.213318,508.432098 
	C735.029480,513.170532 736.571106,515.294006 741.417664,514.813843 
	C743.396484,514.617859 745.420959,514.661560 747.408447,514.811035 
	C757.299194,515.555237 766.529236,511.191803 776.465027,511.341125 
	C782.489502,511.431641 792.164673,501.341095 792.541748,495.723175 
	C793.189270,486.075775 793.838989,476.239014 786.415955,468.123749 
	C787.235291,467.457336 787.785217,467.124023 788.189453,466.663025 
	C790.970337,463.490997 789.896545,459.650879 789.267761,456.293182 
	C788.720642,453.372040 785.373657,454.795959 783.246277,454.269836 
	C779.646484,453.379547 777.564819,457.297913 774.640137,457.084686 
	C761.930481,456.158112 749.614197,459.097839 737.124939,460.296478 
	C733.343018,460.659424 729.186707,463.975494 729.423828,466.950928 
	C729.717957,470.641754 734.867126,474.621277 738.588684,473.443237 
	C741.778442,472.433533 745.147400,472.269989 748.214294,471.152313 
	C755.227051,468.596619 762.396057,470.263855 769.476685,469.844788 
	C770.576599,469.779694 771.019653,470.699463 771.718567,471.446747 
	C777.552979,477.684570 778.126587,485.283356 777.489685,493.166473 
	C777.263123,495.970764 775.250305,498.010498 772.626831,497.995209 
	C768.894165,497.973480 766.032349,499.795593 762.020752,501.237274 
M385.725342,734.744263 
	C393.601898,740.672302 402.474487,742.822571 412.211578,741.793762 
	C413.522369,741.655273 414.864563,741.910156 416.069946,741.107300 
	C424.291626,735.630859 427.311249,721.731140 420.868286,713.952820 
	C415.967255,708.035889 409.736603,702.892212 400.983612,703.285889 
	C399.354675,703.359131 397.642303,703.608032 396.127838,702.681396 
	C395.423798,699.224915 390.936798,694.923950 387.602600,694.476685 
	C385.846130,694.241089 384.914917,695.144653 384.088379,696.616211 
	C379.866760,704.132507 375.175140,711.411255 371.383179,719.134155 
	C368.321960,725.368774 363.435089,730.889282 364.013580,738.797302 
	C364.265167,742.236694 366.248962,744.381897 367.189972,747.195374 
	C369.902496,755.305054 376.857605,758.158508 383.912933,760.513489 
	C386.480225,761.370422 389.052765,761.290527 391.460297,763.348694 
	C394.028381,765.544250 397.759888,765.302612 401.004150,764.075012 
	C405.319611,762.442078 406.348114,758.966248 405.658264,754.757446 
	C404.927826,750.301270 401.337280,751.305664 398.558594,751.345947 
	C391.224060,751.452393 385.290436,748.799622 380.261047,743.463257 
	C375.194458,738.087402 375.156952,736.936401 381.261780,732.319153 
	C382.503113,733.094055 383.744446,733.868896 385.725342,734.744263 
M271.709259,458.448059 
	C271.767944,456.794800 272.326904,455.283173 272.758057,453.703125 
	C274.461426,447.460907 278.132050,441.715759 277.697449,434.916809 
	C277.575012,433.001099 278.437164,431.613800 279.635590,430.057983 
	C282.172119,426.765076 280.444733,420.316559 276.553894,419.772766 
	C270.726501,418.958344 264.639130,418.177551 258.836334,420.261475 
	C249.061630,423.771790 242.475723,430.610260 239.952286,440.626190 
	C237.297836,451.161957 239.426102,461.135864 247.049606,469.035065 
	C256.259796,478.578400 278.025146,479.036682 286.878693,472.943329 
	C291.122192,470.022827 294.617371,466.528503 295.972473,462.340546 
	C297.055084,458.994629 300.079071,456.399414 299.722168,452.528412 
	C299.084869,445.616608 300.716858,438.738281 297.140015,431.767792 
	C295.076996,427.747314 292.892365,428.243622 290.238037,428.472565 
	C286.625519,428.784210 285.513641,432.935272 286.168243,434.674622 
	C287.409546,437.972931 287.116730,441.210876 287.527924,444.429291 
	C288.403687,451.284363 286.132568,457.159241 281.170197,462.022614 
	C278.891479,464.255890 276.153015,463.232971 273.638702,463.173279 
	C271.158508,463.114349 271.978577,460.793671 271.709259,458.448059 
M720.517090,596.822571 
	C727.052246,597.320068 732.636475,600.721863 738.498840,603.074646 
	C747.664734,606.753235 757.359314,608.991943 766.225464,613.503662 
	C767.803833,614.306946 770.368652,614.119629 772.102783,613.436768 
	C774.448242,612.513306 776.792297,611.083435 776.719910,607.743591 
	C776.661621,605.056641 776.382751,601.966125 773.477600,601.823059 
	C768.810974,601.593323 765.566956,597.011475 760.630432,598.179260 
	C760.107056,598.303101 759.221252,597.929626 758.847839,597.492615 
	C755.178406,593.198853 749.361877,593.763123 744.953369,591.258301 
	C741.109497,589.074341 736.563110,588.925842 732.808777,586.678406 
	C728.900879,584.339111 724.414856,584.449097 720.864441,586.069763 
	C717.709229,587.510071 719.630310,591.769165 719.526367,594.806458 
	C719.510986,595.256287 719.888794,595.719482 720.517090,596.822571 
M634.091064,748.615295 
	C641.925415,750.684875 650.268127,747.803345 654.793884,741.464661 
	C659.064148,735.483826 659.552490,728.579468 655.774597,722.426819 
	C645.295959,728.491394 634.805725,734.562744 624.333801,740.623535 
	C626.294617,745.316711 630.219177,746.364868 634.091064,748.615295 
M743.934692,653.338379 
	C748.158569,645.301636 747.751465,639.219543 742.639526,634.513672 
	C742.201538,635.863647 741.950073,637.476624 743.195984,638.175964 
	C745.870300,639.677246 744.916687,642.132019 745.409851,644.282532 
	C746.287781,648.110352 742.808777,649.708435 741.589172,652.436462 
	C739.625854,656.828003 736.880859,660.343994 731.023621,659.406677 
	C727.472229,658.838440 724.570557,658.939819 721.173950,655.931580 
	C715.271790,650.704224 707.086121,648.330688 700.853333,643.072083 
	C699.702271,642.100952 697.875549,641.742493 695.656860,643.505005 
	C705.509460,649.316223 714.739502,655.504150 724.624634,660.357910 
	C732.691284,664.318787 738.243896,661.815430 743.934692,653.338379 
M500.789612,738.233154 
	C500.477509,736.527649 499.989655,734.987061 498.142853,737.082886 
	C495.669098,739.890259 496.278381,742.588196 498.847809,745.687988 
	C500.450867,743.387451 500.668121,741.175964 500.789612,738.233154 
M774.610962,482.358276 
	C773.672607,479.856689 772.137939,479.656403 769.744690,481.216217 
	C771.079834,483.127960 771.565430,486.152771 774.610962,482.358276 
z"/>
<path fill="#000000" opacity="1.000000" stroke="none" 
	d="
M299.966522,342.020050 
	C301.277954,341.968811 302.788055,341.481781 303.758545,342.636230 
	C308.278625,348.013123 315.104614,350.579651 319.518066,356.307281 
	C323.023468,360.856537 327.763458,364.628906 333.640472,366.312286 
	C337.968567,367.552063 342.118439,366.712860 346.464783,365.196594 
	C341.097321,369.828949 336.988190,375.267090 333.068542,381.756866 
	C330.158813,374.538910 323.704407,373.366974 318.665955,370.329681 
	C313.919281,367.468292 309.018250,364.625580 303.997040,362.530151 
	C298.033264,360.041382 291.921387,355.060120 285.152130,357.620453 
	C280.181854,359.500397 274.732513,361.692230 271.184174,366.170715 
	C270.006134,367.657593 268.732819,368.588593 267.179779,369.549438 
	C264.825317,366.085907 267.262878,364.118652 269.253815,362.219086 
	C272.016937,359.582825 274.846893,356.983673 277.874115,354.663269 
	C287.152191,347.551361 287.337708,338.454956 283.835358,328.502197 
	C282.004639,323.299774 284.837677,316.436005 289.238983,316.678223 
	C291.680481,316.812592 293.695465,316.306488 295.845612,315.705841 
	C300.312683,314.457916 304.940918,313.606171 307.774292,309.189087 
	C308.822815,307.554504 311.046844,307.735504 312.807343,307.332672 
	C319.633636,305.770752 322.102997,300.465118 318.703979,294.582947 
	C324.101196,293.352753 324.101196,293.352753 328.462708,286.877167 
	C330.978180,291.220367 336.295929,293.502869 341.275238,292.472229 
	C343.623962,291.986053 344.226562,290.147552 345.077209,288.288910 
	C349.473267,278.683685 355.712555,270.614929 365.642303,266.328308 
	C370.486206,264.237213 375.551910,262.500214 380.427795,260.504150 
	C386.254425,258.118805 389.492889,252.761108 390.968048,246.595001 
	C391.382263,244.863388 390.796783,242.867966 392.701630,241.233276 
	C392.987152,240.989334 392.962921,240.960022 392.962921,240.960022 
	C393.975555,244.114212 392.625916,247.781113 395.654846,250.611755 
	C396.913391,251.787918 395.632324,253.451675 393.885376,254.468124 
	C389.262329,257.157928 387.816193,262.255798 390.347046,265.980042 
	C392.522491,269.181335 396.259918,269.166656 401.266449,265.969208 
	C401.503357,265.817932 401.894104,265.907593 402.342438,265.875916 
	C404.338348,267.986786 403.124298,270.879883 404.003784,273.373596 
	C405.950104,278.892273 408.842651,283.847290 411.416718,289.019531 
	C412.896118,291.992126 412.175018,295.888062 410.488464,300.764313 
	C407.788727,295.150940 405.008453,291.740997 400.654694,289.372101 
	C396.208160,286.952698 390.991791,286.896118 386.203857,289.142670 
	C380.943024,291.611115 375.454285,293.982605 369.421661,294.272705 
	C365.597321,294.456635 363.800842,292.331879 364.958954,289.062317 
	C366.288605,285.308533 368.275757,281.772247 372.964203,280.605377 
	C376.972504,279.607788 380.670959,277.822266 384.960083,277.288391 
	C388.257050,276.878021 386.487213,272.779175 386.754761,270.331970 
	C386.995422,268.130371 386.503632,265.667999 383.757812,265.360016 
	C381.247009,265.078430 378.790070,264.714294 376.293640,266.786804 
	C373.068787,269.464050 368.433533,269.035278 364.507050,270.785858 
	C358.033234,273.672180 351.568726,281.343689 351.230072,288.415161 
	C350.909058,295.118439 351.447235,301.050568 357.974243,305.054626 
	C359.441528,305.954742 360.621429,306.710144 362.301727,306.787720 
	C364.715240,306.899017 367.075562,306.646393 368.953766,309.088409 
	C369.857697,310.263641 371.670898,310.418030 373.462738,308.457825 
	C375.601044,306.118591 378.364929,303.797089 382.086609,303.862579 
	C383.982788,303.895966 385.480286,303.408234 386.829163,301.740662 
	C389.207672,298.800323 393.011414,298.840881 395.204803,300.956726 
	C397.217194,302.897949 397.102142,306.740479 394.880249,309.150238 
	C391.679382,312.621765 387.385681,314.465179 383.122711,316.525085 
	C378.965485,318.533844 374.912720,319.220734 370.490906,319.604645 
	C368.014557,319.819641 367.289856,326.178833 369.263367,328.702606 
	C369.465302,328.960876 369.841919,329.104004 369.989685,329.379730 
	C371.282623,331.792542 376.266388,331.150024 375.388489,334.962341 
	C374.215485,340.056061 371.595001,344.675262 367.211884,347.745911 
	C364.697174,349.507599 361.780548,350.872711 358.352386,351.543152 
	C358.196350,350.478119 358.041016,349.687347 357.970367,348.889038 
	C357.671906,345.517273 356.865417,342.671753 352.711945,342.236023 
	C348.401672,341.783783 346.191925,344.177002 345.293365,347.815765 
	C344.802338,349.804291 343.431274,350.874664 342.395020,352.320190 
	C340.377686,355.134277 338.203888,354.840332 335.661072,352.905426 
	C329.418243,348.155029 324.883881,341.543976 318.341614,337.136688 
	C317.790588,336.765503 317.227264,336.408447 316.647186,336.085175 
	C311.654327,333.302490 311.617615,332.160156 315.646820,327.736511 
	C317.307098,325.913727 320.255554,324.917114 319.763855,321.423981 
	C319.312347,318.216492 320.288422,314.432861 315.870667,313.303436 
	C311.279175,312.129639 308.678864,315.322388 306.765015,318.506531 
	C304.032928,323.052002 303.669678,323.380676 299.429291,320.182465 
	C296.512634,317.982635 289.541687,318.526642 288.051544,321.427856 
	C286.139740,325.149963 286.901398,328.442322 290.844543,330.678741 
	C293.134247,331.977356 294.032562,333.152618 291.873566,336.031403 
	C289.162445,339.646423 290.724670,344.447510 294.200867,346.349976 
	C298.012451,348.436005 299.808319,347.262634 300.133728,342.187439 
	C299.998077,341.989868 299.966522,342.020050 299.966522,342.020050 
M338.769653,318.668396 
	C339.840881,320.528046 341.219330,322.331177 342.556641,323.823120 
	C348.466522,330.416534 353.251770,338.029236 360.303986,343.606812 
	C362.588196,345.413452 364.550751,346.707672 367.173462,344.079041 
	C369.873047,341.373322 372.574921,338.367767 369.904114,334.734985 
	C367.698700,331.735229 365.674255,328.533752 362.783051,325.905914 
	C358.843933,322.325684 353.672607,318.733215 351.656952,314.655975 
	C348.286896,307.839142 342.566406,303.623505 338.238647,298.021515 
	C336.175690,295.351135 332.477539,295.163910 329.784149,297.639862 
	C325.274200,301.785706 325.208313,303.768341 328.530396,307.294281 
	C331.866486,310.835114 335.132965,314.441589 338.769653,318.668396 
z"/>
<path fill="#000000" opacity="1.000000" stroke="none" 
	d="
M486.009094,778.971924 
	C485.215088,781.118835 484.596588,783.371826 483.565582,785.416809 
	C482.469391,787.590881 480.432770,788.444214 478.068756,787.700500 
	C475.350830,786.845398 476.033630,784.679504 476.461426,782.713379 
	C479.112457,770.529419 481.648804,758.318237 484.507568,746.183044 
	C485.377014,742.492249 484.805756,740.657349 480.796509,739.943604 
	C473.923157,738.719849 467.165985,736.820435 460.279755,735.696899 
	C447.056305,733.539307 434.377350,740.799988 429.226715,753.154724 
	C428.626526,754.594360 427.302399,756.524963 429.588470,757.383972 
	C431.671783,758.166748 431.457031,755.644592 432.340485,754.637207 
	C434.240936,752.470154 434.120483,748.122009 438.783722,748.661499 
	C438.055115,752.337402 439.328583,753.025696 442.758392,751.724854 
	C450.278961,748.872314 457.621338,747.184570 464.478149,753.948242 
	C467.904114,757.327637 470.750305,756.404053 473.036713,752.213318 
	C473.825745,750.766968 475.523651,749.915283 475.703033,747.611694 
	C472.639282,747.585022 470.112061,746.608521 470.271027,742.452026 
	C473.277710,741.476501 476.528076,741.368835 479.446686,741.991821 
	C483.939819,742.950928 482.548523,746.979614 481.324554,749.192078 
	C479.590027,752.327393 479.967346,755.624634 479.059357,758.671875 
	C477.158508,765.051392 476.461395,771.656738 474.633026,778.010254 
	C474.131897,779.751831 472.991547,781.359009 473.253235,783.250244 
	C473.923340,788.092651 472.888672,792.300293 468.713135,795.647095 
	C467.677429,795.052673 467.585754,792.924011 465.470795,793.163452 
	C458.311249,793.973877 452.388092,790.193665 446.181183,787.581665 
	C444.517914,786.881653 442.720673,787.333191 441.050323,786.083984 
	C433.338867,780.316895 429.817902,772.442017 428.784393,763.169434 
	C428.694794,762.365601 428.569366,761.565735 428.403961,760.346375 
	C423.720612,771.669250 431.405548,787.309326 448.386963,793.415100 
	C446.791565,794.716003 446.491516,796.611328 445.249664,799.034302 
	C443.321228,792.850403 437.520477,795.312622 433.862488,792.407776 
	C426.097931,786.241821 420.203156,779.505188 418.934052,769.317810 
	C417.318695,756.351074 424.739563,740.554199 435.794281,733.807922 
	C448.555328,726.020325 461.204041,727.978516 474.307465,731.276062 
	C479.304504,732.533508 484.334869,733.658264 489.334625,734.905334 
	C492.480530,735.690063 494.155731,737.294922 493.355743,740.986267 
	C491.136688,751.225769 489.155273,761.516968 487.102173,771.792114 
	C486.679230,773.908752 486.352692,776.044617 485.982788,778.590332 
	C485.983856,779.009094 486.003052,778.986389 486.009094,778.971924 
M460.935974,787.270508 
	C462.023071,788.449768 463.498077,788.661194 464.963989,788.807251 
	C466.532471,788.963562 468.002502,788.682190 468.480621,786.902710 
	C468.873230,785.441711 468.936066,783.903076 467.525513,782.876404 
	C466.108307,781.844910 464.705170,782.274109 463.484924,783.308655 
	C462.381104,784.244568 461.024506,785.006409 460.935974,787.270508 
z"/>
<path fill="#000000" opacity="1.000000" stroke="none" 
	d="
M589.990967,265.670898 
	C583.300720,285.636932 564.151489,293.338348 545.762451,289.420868 
	C538.937866,287.966980 531.950195,287.296509 525.076172,286.051575 
	C519.405396,285.024597 519.093323,283.379608 520.825867,278.009460 
	C521.971985,274.457123 522.024536,270.277374 521.855896,266.564514 
	C521.725647,263.695190 521.531250,261.091034 522.548340,258.407623 
	C524.784058,252.509308 523.458435,246.188278 524.746887,240.122101 
	C526.194885,233.304810 526.875549,226.321320 527.809021,219.399216 
	C528.297974,215.773239 529.884888,213.129578 533.893799,213.847473 
	C545.164490,215.865768 556.821655,216.138840 567.625366,220.296066 
	C587.318726,227.874023 595.769531,245.064438 589.990967,265.670898 
M583.425964,249.162994 
	C581.750427,239.864517 576.832458,232.960251 568.317200,228.718369 
	C558.410828,223.783569 547.432129,223.856201 536.758545,221.612061 
	C536.264404,222.784683 535.694336,223.647217 535.538879,224.578934 
	C532.719360,241.474640 530.067871,258.399567 527.082825,275.265564 
	C526.380920,279.231506 528.070190,280.260712 531.328003,280.722839 
	C536.096436,281.399231 541.119812,281.467072 545.549866,283.105103 
	C556.384033,287.111023 565.343567,283.095001 573.287231,276.784668 
	C581.658813,270.134491 584.555847,260.617462 583.425964,249.162994 
z"/>
<path fill="#000000" opacity="1.000000" stroke="none" 
	d="
M230.593903,603.975830 
	C229.950760,598.793030 229.243774,594.015198 228.983765,589.213196 
	C228.859512,586.918457 229.353333,584.042908 232.535950,584.230469 
	C235.727219,584.418579 235.487839,587.674255 234.861481,589.309021 
	C231.797501,597.306091 236.976028,602.910034 240.331512,608.855225 
	C244.035538,615.417908 250.114304,617.892822 255.219757,615.875122 
	C261.370483,613.444275 265.184570,606.683411 263.681549,599.552551 
	C262.224854,592.641541 261.409485,585.742615 261.888428,578.723206 
	C262.741608,566.218628 273.798737,558.755432 285.650604,562.628967 
	C289.936493,564.029785 293.226685,566.958008 295.685974,570.543823 
	C302.755066,580.851318 305.650574,592.136902 303.224335,604.651184 
	C302.284424,609.499207 299.990570,611.257996 295.355560,609.649292 
	C294.428680,608.401550 295.057648,607.312195 295.391632,606.227478 
	C298.775970,595.235474 296.346802,585.120361 290.461670,575.687805 
	C286.930084,570.027405 279.880096,568.243286 274.919678,571.244446 
	C271.593903,573.256653 270.098389,576.259766 270.122345,580.008606 
	C270.175568,588.337402 270.300964,596.666382 270.471588,604.993713 
	C270.699615,616.120361 264.134521,623.756104 253.351685,624.439758 
	C245.282928,624.951416 239.996735,620.094299 235.720932,614.132202 
	C233.613113,611.193054 232.355820,607.644043 230.593903,603.975830 
z"/>
<path fill="#000000" opacity="1.000000" stroke="none" 
	d="
M246.389313,611.964844 
	C239.859070,604.292114 236.820755,596.502869 238.151169,586.150146 
	C239.049606,579.158630 241.607834,572.249695 240.844589,565.024841 
	C240.533051,562.075623 240.298935,559.118164 239.990021,555.730530 
	C243.677856,556.235352 247.529129,554.583008 250.144302,558.985474 
	C251.146530,560.672668 253.885025,559.743469 255.847122,559.827515 
	C260.836487,560.041138 265.915009,559.022827 270.946320,560.868774 
	C267.967560,562.049133 265.822815,563.848755 263.757935,566.142029 
	C262.300323,567.760864 261.404144,569.126648 261.285828,571.211792 
	C261.212036,572.512695 261.242432,574.036377 260.590332,575.051819 
	C256.917328,580.771545 258.546143,586.438782 260.165253,592.293396 
	C261.627167,597.579590 262.580566,602.900879 258.979950,608.021484 
	C255.056656,613.601135 253.575958,614.294983 246.389313,611.964844 
z"/>
<path fill="#000000" opacity="1.000000" stroke="none" 
	d="
M300.028809,422.012482 
	C293.158783,416.428223 284.827850,413.273804 277.347717,408.669098 
	C272.675354,405.792847 267.788025,403.267212 263.017029,400.549316 
	C257.429138,397.366028 257.438507,397.349579 260.667267,391.592194 
	C263.384857,391.262299 265.193359,394.050507 268.135223,393.973541 
	C264.898865,382.656311 268.176819,373.055573 276.459869,365.465576 
	C283.184937,359.303131 292.733032,358.975586 301.118713,363.637238 
	C309.116241,368.083069 317.046234,372.651459 324.970306,377.227600 
	C326.738159,378.248505 329.607635,379.137939 327.836548,381.927582 
	C326.439087,384.128754 323.922943,385.074341 321.272095,383.698242 
	C315.367035,380.632690 309.503815,377.486298 303.635712,374.350006 
	C301.875000,373.409027 300.200500,372.298248 298.408173,371.426331 
	C288.032013,366.378357 281.417816,368.283112 275.721436,377.898071 
	C270.961639,385.932159 273.041351,395.610046 281.166504,401.157196 
	C285.820343,404.334381 290.933228,406.840576 295.848785,409.632416 
	C298.741089,411.275146 301.709229,412.792786 304.534088,414.542908 
	C306.451080,415.730591 309.594360,416.224426 307.578705,419.967194 
	C305.856873,423.164307 303.770630,423.823517 300.347107,422.047516 
	C299.972687,421.964508 300.008881,421.997955 300.028809,422.012482 
z"/>
<path fill="#000000" opacity="1.000000" stroke="none" 
	d="
M239.779907,546.125366 
	C234.310272,539.110107 234.471100,531.244568 235.071945,523.406555 
	C235.376053,519.439575 238.046921,516.455811 240.674362,513.639648 
	C241.603378,512.643982 242.823395,511.734528 244.189896,512.465454 
	C245.705826,513.276367 245.825058,514.926086 245.498840,516.434082 
	C245.295151,517.375732 244.712692,518.248413 244.234100,519.115540 
	C238.514023,529.480286 240.894867,540.329834 250.319504,546.790039 
	C258.440796,552.356750 272.415466,550.137817 278.972473,542.240356 
	C284.879089,535.126221 284.233917,522.904846 277.593201,516.111572 
	C273.738068,512.167969 273.728119,511.606720 277.434296,507.160034 
	C286.775940,511.257355 291.416992,520.944641 290.432709,534.291504 
	C289.721619,543.933960 281.419464,553.931641 272.051788,556.426331 
	C257.679016,560.253967 247.001221,556.939270 239.779907,546.125366 
z"/>
<path fill="#000000" opacity="1.000000" stroke="none" 
	d="
M300.011047,341.972229 
	C297.882996,343.684937 295.764587,345.422302 293.226654,342.495117 
	C291.919861,340.987885 291.879761,341.022675 296.985657,333.575623 
	C296.414703,331.249023 294.259369,330.358887 292.647552,329.012146 
	C290.135925,326.913544 289.850952,324.704224 291.807556,322.089996 
	C294.101624,319.024994 295.722290,321.284698 297.497345,322.712921 
	C302.925720,327.080566 302.917145,327.061646 307.755859,321.822449 
	C309.106873,320.359619 310.490784,318.910278 311.992615,317.608185 
	C313.679596,316.145599 315.347626,316.617188 316.895813,318.013184 
	C318.660095,319.604034 317.721222,320.961609 316.561127,322.291168 
	C314.595551,324.543915 312.717194,326.887695 310.598328,328.987549 
	C308.464264,331.102509 308.466919,332.628021 310.851685,334.655853 
	C318.063751,340.788452 325.017670,347.224976 332.240265,353.344666 
	C337.786926,358.044342 343.531097,356.804993 347.075653,350.454346 
	C347.480774,349.728516 347.885773,349.000092 348.239960,348.248901 
	C348.913696,346.819916 349.668396,345.511566 351.591766,346.130188 
	C353.717010,346.813782 354.259399,348.485840 354.045593,350.474365 
	C352.997345,360.223511 339.464874,367.054749 330.869049,361.967010 
	C324.696838,358.313751 319.805176,352.968964 314.335144,348.388611 
	C311.284210,345.833862 308.225555,343.258881 305.433990,340.432617 
	C302.942688,337.910400 301.501617,338.846008 300.066742,341.718323 
	C299.966522,342.020050 299.998077,341.989868 300.011047,341.972229 
z"/>
<path fill="#000000" opacity="1.000000" stroke="none" 
	d="
M406.416199,304.753296 
	C405.944550,306.503723 405.997772,308.405853 404.055450,308.516724 
	C402.010956,308.633423 402.021515,306.658142 401.568115,305.321899 
	C399.313599,298.677368 394.808319,296.405975 388.114716,298.693390 
	C382.933044,300.464111 377.818726,302.435120 372.620087,304.152466 
	C365.732147,306.427917 360.307648,305.045410 356.351593,300.217194 
	C352.559998,295.589691 351.966797,289.051666 355.777222,283.474457 
	C361.471924,275.139252 369.515381,270.153259 379.680695,268.905457 
	C380.173248,268.845001 380.678955,268.840973 381.175140,268.869415 
	C383.082703,268.978729 384.304962,269.917999 384.554016,271.868195 
	C384.838867,274.098633 383.358582,274.758972 381.562469,275.023071 
	C375.311127,275.942200 369.790314,278.467926 365.048126,282.622894 
	C361.162781,286.027130 359.802673,290.739258 361.836029,294.146271 
	C364.377808,298.405182 368.330170,298.314301 372.379974,296.966736 
	C377.099335,295.396423 381.684631,293.415009 386.423615,291.913513 
	C398.338074,288.138611 404.533417,292.057129 406.416199,304.753296 
z"/>
<path fill="#000000" opacity="1.000000" stroke="none" 
	d="
M422.336487,290.424927 
	C423.619537,292.174896 424.706757,293.625214 425.762085,295.032990 
	C424.825439,297.164581 423.348297,298.364166 421.392273,297.631958 
	C419.192474,296.808472 416.871857,296.280914 415.736633,293.375488 
	C412.072723,283.998444 407.950531,274.801208 404.067413,265.508575 
	C403.025696,263.015686 401.557648,262.219574 399.039917,263.520905 
	C397.722290,264.201935 396.260803,264.801178 394.733948,264.394867 
	C393.300995,264.013519 392.645142,262.791840 392.364685,261.440796 
	C392.089935,260.117035 392.753296,258.997009 393.945343,258.668610 
	C400.687988,256.811249 399.550049,252.764984 397.017944,248.218124 
	C396.721436,247.685623 396.757721,246.967789 396.645569,246.366882 
	C403.097198,243.851624 403.219757,243.796967 405.924286,249.861740 
	C406.985260,252.240967 408.109161,252.863678 410.469879,251.728455 
	C414.229004,249.920807 418.278046,249.057983 422.578369,248.440826 
	C425.143341,252.427185 422.818024,253.990616 419.437317,255.237625 
	C416.495697,256.322693 413.630768,257.615540 410.276947,259.005066 
	C413.223419,269.907562 418.214081,279.822815 422.336487,290.424927 
z"/>
<path fill="#000000" opacity="1.000000" stroke="none" 
	d="
M594.192993,744.791687 
	C592.186584,738.723450 590.334412,733.027466 588.428833,727.349426 
	C587.467712,724.485657 587.541870,722.039551 590.847656,720.825378 
	C594.549194,719.465820 595.078918,722.529968 595.832153,724.744263 
	C600.491943,738.442993 605.090759,752.163513 609.546021,765.929810 
	C610.284912,768.212891 612.177124,771.374390 608.315979,772.697937 
	C604.724487,773.929016 603.282104,771.268555 602.320984,768.353821 
	C602.075012,767.607971 601.724915,766.896484 601.052979,765.279358 
	C598.838745,771.976440 595.140198,776.436096 589.413208,778.993408 
	C587.785645,779.720032 586.024902,780.927124 584.579407,778.698975 
	C583.113953,776.440002 584.932983,775.517517 586.339111,774.299683 
	C591.670227,769.682312 596.773193,764.945312 597.277588,757.160645 
	C597.560852,752.789062 594.368774,749.391907 594.192993,744.791687 
z"/>
<path fill="#000000" opacity="1.000000" stroke="none" 
	d="
M514.041138,283.031616 
	C511.243408,281.860962 511.037506,281.797150 511.825226,279.256165 
	C512.945740,275.641357 512.880127,272.082764 512.302185,268.413971 
	C511.698578,264.581757 511.953949,260.785797 513.457153,257.134094 
	C515.186401,252.933060 515.470520,248.407745 516.424194,244.031815 
	C517.004272,241.370239 517.805481,238.570511 520.229797,236.379822 
	C522.108704,237.803253 522.243591,239.759613 521.813232,241.362793 
	C520.966553,244.516861 521.470825,247.648468 521.355774,250.784195 
	C521.252869,253.590256 521.388184,256.260284 518.824280,258.458130 
	C517.002197,260.020081 517.292542,262.702057 517.303101,265.053619 
	C517.330444,271.148315 518.025757,277.373688 514.041138,283.031616 
z"/>
<path fill="#000000" opacity="1.000000" stroke="none" 
	d="
M376.667480,327.990875 
	C373.790009,328.358948 371.897949,327.920319 371.948730,324.830780 
	C371.992737,322.151001 373.324066,321.111328 375.977570,320.915924 
	C382.904297,320.405823 389.386566,318.329193 395.409363,314.826111 
	C396.539764,314.168579 397.807861,313.538635 399.303070,315.062225 
	C394.342560,323.582062 385.946625,326.132507 376.667480,327.990875 
z"/>
<path fill="#000000" opacity="1.000000" stroke="none" 
	d="
M392.997162,241.004898 
	C397.704865,236.808456 403.372192,235.969711 408.406921,239.017548 
	C410.403625,240.226303 412.235931,240.416519 414.511993,240.080872 
	C421.294617,239.080643 424.849915,241.615631 426.106903,249.132858 
	C424.461395,246.172226 422.887085,245.137939 420.535950,245.206589 
	C418.088745,245.278061 416.256744,245.781448 414.485321,247.784729 
	C412.091705,250.491608 407.188782,248.992157 406.187469,244.569336 
	C404.679688,237.909302 400.480499,240.051041 396.714447,240.811768 
	C395.596436,241.037613 394.624420,241.460327 393.230164,241.017426 
	C392.962921,240.960022 392.987152,240.989334 392.997162,241.004898 
z"/>
<path fill="#000000" opacity="1.000000" stroke="none" 
	d="
M531.395142,742.310425 
	C531.200378,740.793091 530.977600,739.629517 531.078552,738.494690 
	C531.266785,736.378662 531.203369,733.667725 533.839600,733.267578 
	C536.432251,732.873962 538.733704,734.374146 539.713867,736.913208 
	C540.683594,739.425415 540.253052,741.993286 537.844116,743.523621 
	C535.687744,744.893372 533.236389,745.794495 531.395142,742.310425 
z"/>
<path fill="#000000" opacity="1.000000" stroke="none" 
	d="
M421.800690,280.037964 
	C418.706299,274.342957 415.266571,269.117676 415.653107,262.149597 
	C420.437683,264.881470 424.633820,278.569244 422.552338,283.127136 
	C421.618927,282.378571 422.122467,281.280884 421.800690,280.037964 
z"/>
<path fill="#000000" opacity="1.000000" stroke="none" 
	d="
M321.572632,284.292847 
	C324.101501,285.433990 325.610352,287.015625 324.068970,289.390167 
	C322.951935,291.110992 321.380524,292.899292 318.827698,292.197052 
	C317.157471,291.737610 316.542145,290.365540 316.696320,288.753204 
	C316.954529,286.053101 317.892059,283.912231 321.572632,284.292847 
z"/>
<path fill="#000000" opacity="1.000000" stroke="none" 
	d="
M216.907959,485.546265 
	C219.838852,484.430664 221.024857,486.684601 222.491730,488.021271 
	C223.348007,488.801605 223.212814,490.175873 222.354355,491.192322 
	C221.452789,492.259796 220.336929,492.951416 218.885193,492.678772 
	C217.114670,492.346283 215.953873,491.175140 215.278351,489.585815 
	C214.584732,487.953949 215.333176,486.715088 216.907959,485.546265 
z"/>
<path fill="#000000" opacity="1.000000" stroke="none" 
	d="
M559.163452,293.854950 
	C560.626160,294.037720 561.729126,293.076416 563.358643,294.289337 
	C558.836548,298.592987 554.324036,295.824371 549.992432,295.480255 
	C549.954346,294.942963 549.916321,294.405701 549.878296,293.868408 
	C552.845032,293.868408 555.811829,293.868408 559.163452,293.854950 
z"/>
<path fill="#000000" opacity="1.000000" stroke="none" 
	d="
M315.891479,697.218262 
	C313.325378,699.400940 311.370636,697.233887 309.384247,696.450195 
	C300.412842,692.910706 294.290161,686.368713 290.376129,677.682678 
	C287.127625,670.473694 288.500610,663.856323 293.902100,658.385193 
	C302.447449,649.729553 312.681854,643.059509 321.985168,635.285095 
	C323.979401,633.618591 325.631134,634.315063 327.134552,636.078003 
	C328.495850,637.674377 329.046814,639.177612 327.061371,640.749451 
	C326.303833,641.349182 325.723877,642.173279 324.697571,643.294189 
	C329.117828,645.345520 333.784485,646.023376 337.269806,649.340454 
	C341.230194,653.109619 344.324310,657.352722 345.951141,662.511108 
	C348.123657,669.399841 345.590424,676.221375 339.799133,680.007263 
	C333.457947,684.152649 327.491699,683.647217 321.005707,678.342529 
	C315.269379,673.650879 311.900696,666.911011 306.728943,661.725464 
	C306.152863,661.147888 305.610626,660.536560 305.091888,659.982666 
	C297.855713,663.191528 295.139526,669.799805 298.110962,676.664307 
	C300.999207,683.336670 306.273071,687.626831 312.804871,690.103088 
	C316.137634,691.366577 316.715881,693.157104 316.202820,696.430603 
	C316.242035,696.769043 316.003479,697.064819 315.891479,697.218262 
M336.445221,658.188965 
	C329.095215,648.697021 319.971466,646.630310 312.481537,652.653015 
	C310.381531,654.341614 309.921814,655.789062 311.813477,658.010437 
	C314.832367,661.555664 317.533630,665.369934 320.515869,668.948303 
	C322.434082,671.249878 324.538666,673.562073 327.498993,674.439514 
	C331.066315,675.496643 334.472382,675.111389 336.929596,671.817688 
	C340.166077,667.479309 339.516510,663.142395 336.445221,658.188965 
z"/>
<path fill="#000000" opacity="1.000000" stroke="none" 
	d="
M364.266632,702.218323 
	C357.876038,709.853394 351.694275,717.197144 345.808563,724.189209 
	C346.606750,728.233887 354.380402,728.668518 350.208221,733.679321 
	C346.056976,738.664978 344.212311,731.168945 340.299011,731.155579 
	C338.236206,731.938416 337.349518,734.503723 335.704529,736.282959 
	C334.168549,737.944275 332.831329,739.216064 330.749268,737.339661 
	C329.027740,735.788208 327.262482,734.462402 329.151093,731.535889 
	C333.713837,724.465393 333.573578,724.372253 327.044830,718.747742 
	C326.162292,717.987427 325.239075,717.273926 324.364014,716.505371 
	C322.625488,714.978455 322.836029,713.340210 324.156097,711.676941 
	C325.586395,709.874756 327.118958,709.866821 328.855865,711.312927 
	C332.034332,713.959290 335.267731,716.539734 338.851959,719.451233 
	C343.085815,714.755981 347.225128,710.271851 351.238739,705.677917 
	C353.970764,702.550842 356.552734,699.290833 359.156342,696.053711 
	C364.553864,689.342834 363.204346,683.851135 355.353699,680.123657 
	C353.949402,679.456909 351.863159,679.441956 351.679565,677.255554 
	C351.569519,675.944885 351.426849,674.432312 352.562378,673.510925 
	C354.169067,672.207153 356.029724,672.598999 357.757935,673.362671 
	C369.701874,678.640625 375.831512,690.146851 364.266632,702.218323 
z"/>
<path fill="#000000" opacity="1.000000" stroke="none" 
	d="
M725.996582,331.996948 
	C728.660889,342.493500 724.797607,350.241028 716.498413,356.774933 
	C709.857239,362.003540 703.942688,368.150726 697.641541,373.818909 
	C696.080933,375.222778 694.688232,378.289551 692.009705,375.717224 
	C689.653442,373.454376 689.396851,370.778290 692.181458,368.384247 
	C692.526794,368.087341 692.723572,367.617706 693.140015,367.006927 
	C682.418762,365.884979 675.426941,359.903961 671.032776,350.664459 
	C667.542664,343.326019 669.454041,336.571625 676.169434,331.334290 
	C681.070007,327.512329 688.202698,328.036804 694.172302,332.469543 
	C700.772644,337.370728 705.010071,344.597595 711.350952,349.728210 
	C719.629028,345.665619 721.460571,337.567291 715.750977,329.974731 
	C712.041443,325.041870 707.142700,321.676453 701.270447,319.843597 
	C698.672485,319.032776 697.160095,317.990051 698.140320,314.899719 
	C699.232971,311.454590 701.438721,312.513092 703.709229,313.147766 
	C713.783875,315.963959 720.676514,322.529114 725.757080,331.776123 
	C726.003784,332.007751 726.000000,332.000000 725.996582,331.996948 
M698.410339,345.089081 
	C695.788452,342.332092 693.372681,339.359497 689.906921,337.533264 
	C684.761658,334.821960 680.118896,336.274139 677.408875,341.432800 
	C674.825562,346.350128 677.595337,350.119720 680.210205,353.717194 
	C685.984009,361.660645 699.678223,366.102203 706.248962,354.109802 
	C703.837219,351.349609 701.343445,348.495605 698.410339,345.089081 
z"/>
<path fill="#000000" opacity="1.000000" stroke="none" 
	d="
M739.858032,565.321655 
	C730.903870,551.854309 736.060608,531.418762 750.744995,524.893982 
	C760.879395,520.390869 771.159485,521.487366 779.805908,528.639648 
	C788.881165,536.146606 790.150146,546.375793 787.431763,557.282104 
	C785.801453,563.822937 782.083130,569.032104 775.919739,573.036133 
	C777.954712,574.059875 779.695679,574.798523 781.288086,575.778442 
	C782.656433,576.620483 783.343689,577.971558 782.866943,579.638367 
	C782.374512,581.359863 781.032471,581.993652 779.404541,581.823975 
	C776.449646,581.516235 773.465393,581.259155 770.573303,580.619751 
	C756.475342,577.502869 741.836975,577.221741 728.035217,572.620850 
	C718.943604,569.590088 713.677856,563.242188 712.859985,553.609253 
	C711.921082,542.549377 715.255127,532.564575 721.349304,523.493469 
	C724.134094,519.348328 726.781860,519.539124 730.802979,524.064331 
	C725.236084,529.242859 722.123962,535.857056 720.456909,543.318359 
	C717.658813,555.843079 722.072632,563.228027 734.513550,566.188477 
	C736.288635,566.610840 738.097839,567.203430 739.883423,567.177734 
	C741.572754,567.153442 740.232666,566.160034 739.858032,565.321655 
M754.919739,569.726624 
	C758.105652,570.591003 761.161987,571.898560 764.652832,571.246277 
	C776.802002,568.976257 789.596741,552.738953 778.182373,538.283997 
	C772.790955,531.456299 762.103821,528.276733 754.444031,531.780151 
	C746.648071,535.345947 742.667969,541.584778 742.424377,549.844971 
	C742.164673,558.654297 745.607605,565.740662 754.919739,569.726624 
z"/>
<path fill="#000000" opacity="1.000000" stroke="none" 
	d="
M738.283325,470.256439 
	C735.164490,470.522736 732.944397,470.368073 732.718567,466.690826 
	C732.504700,463.207825 734.519531,462.349518 737.242188,462.088501 
	C748.499939,461.009094 759.764648,460.002045 771.022156,458.919800 
	C774.986511,458.538727 778.992859,458.287689 782.879028,457.486816 
	C786.804321,456.677887 787.520752,459.004333 787.862366,461.823181 
	C788.265625,465.150330 785.760742,464.985626 783.570618,465.141083 
	C782.779724,465.197235 781.998413,465.387268 780.229126,465.677643 
	C786.739197,471.362762 789.888794,478.009125 790.742737,485.859833 
	C791.945984,496.921600 785.365845,506.306488 774.522034,508.755859 
	C763.929871,511.148376 753.074951,511.203156 742.364136,512.526978 
	C739.941589,512.826355 738.349854,511.930511 738.117371,509.506165 
	C737.904480,507.285400 739.018066,505.189636 741.289307,505.171936 
	C746.593872,505.130615 751.715759,503.749084 757.028564,503.473785 
	C764.264465,503.098816 772.082581,502.741577 778.431519,498.108276 
	C786.578674,492.162659 784.542175,475.507355 775.036987,470.096436 
	C771.035828,467.818665 766.705933,466.616852 762.073608,467.570099 
	C756.093689,468.800598 749.799988,468.066711 744.012085,470.779907 
	C742.624512,471.430328 740.480713,470.467590 738.283325,470.256439 
z"/>
<path fill="#000000" opacity="1.000000" stroke="none" 
	d="
M704.459167,671.487183 
	C710.307983,677.544678 714.194702,684.147522 714.333069,692.484131 
	C714.511841,703.260376 709.101257,711.070068 700.290710,716.179504 
	C690.634583,721.779297 680.809814,720.602783 671.643738,714.268066 
	C670.549316,713.511780 669.571777,712.587585 668.486511,711.816528 
	C665.586243,709.755920 665.639526,708.030457 668.354858,705.525452 
	C678.251953,696.395264 687.927490,687.024963 697.624817,677.803833 
	C694.274475,672.979004 687.215576,670.287170 682.026245,671.840271 
	C672.347046,674.736938 665.788879,680.678589 663.963196,691.043823 
	C663.627075,692.952209 663.614990,695.225220 660.486633,694.698792 
	C657.674927,694.225647 656.334717,692.778381 656.726807,689.928589 
	C656.906738,688.620911 657.123962,687.290283 657.552979,686.049194 
	C663.884583,667.736267 686.240295,656.448547 704.459167,671.487183 
M703.639465,683.171875 
	C701.951233,681.641479 700.905945,683.149475 699.860840,684.072144 
	C697.875977,685.824463 695.937378,687.638306 694.084473,689.529297 
	C688.115234,695.621216 682.193604,701.759827 676.260315,707.873535 
	C684.039124,713.847473 692.581116,713.832764 699.781372,707.820740 
	C707.347351,701.503418 708.840271,693.074707 703.639465,683.171875 
z"/>
<path fill="#000000" opacity="1.000000" stroke="none" 
	d="
M607.820679,261.861267 
	C608.052246,255.462036 609.218079,253.865112 614.830811,254.178360 
	C624.333069,254.708694 633.199890,257.221344 640.041809,264.489624 
	C645.104126,269.867340 646.631104,276.153107 643.766663,282.897797 
	C639.411316,293.153137 634.509766,303.175446 629.932129,313.338165 
	C628.664490,316.152557 627.233337,317.826721 623.868774,316.180145 
	C620.518677,314.540588 621.503418,312.354889 622.734619,309.989044 
	C622.956238,309.563202 623.026123,309.058350 623.264587,308.259979 
	C611.947205,311.541534 602.344788,308.901703 594.900391,300.084290 
	C588.999573,293.095184 590.475525,282.767059 597.964966,277.705353 
	C603.282532,274.111511 609.149109,275.058319 614.711243,277.276215 
	C619.794922,279.303284 624.814270,281.564667 629.642456,284.135193 
	C633.128113,285.990967 634.664978,285.083923 635.844177,281.585510 
	C637.902710,275.478485 636.622559,270.258911 631.319458,266.628174 
	C624.590088,262.020935 617.197083,260.054169 608.660645,262.251465 
	C608.264709,262.305542 607.970459,262.007538 607.820679,261.861267 
M611.545105,282.836487 
	C607.225952,281.457550 603.282532,281.743195 600.475037,285.779663 
	C598.200623,289.049713 597.921509,292.464386 600.155212,296.002563 
	C605.273926,304.110596 620.257202,306.156097 627.119324,299.621643 
	C631.330383,295.611633 630.708984,291.287842 625.460449,288.855560 
	C621.119141,286.843689 616.695984,285.008392 611.545105,282.836487 
z"/>
<path fill="#000000" opacity="1.000000" stroke="none" 
	d="
M401.231201,705.559326 
	C408.888489,707.622314 415.330353,710.834167 419.346497,717.592590 
	C422.937836,723.635925 422.419525,729.572083 417.911469,735.188110 
	C413.844147,740.255066 408.554016,741.493286 401.817841,739.539551 
	C393.718903,737.190552 386.991364,732.132874 379.495575,728.677429 
	C373.869934,733.990479 373.727692,742.057617 379.214905,747.062866 
	C384.380402,751.774780 390.724670,753.578857 397.522797,753.946350 
	C400.156403,754.088745 402.842682,753.966187 402.759735,757.587219 
	C402.676117,761.236511 399.762604,761.134949 397.281067,761.045593 
	C387.362579,760.688477 378.763458,757.047546 371.885315,749.889099 
	C366.818146,744.615417 365.982483,734.865356 369.710632,727.926941 
	C374.354706,719.283691 379.098053,710.693542 383.831573,702.098633 
	C384.872559,700.208435 385.876312,698.223450 388.600342,698.384399 
	C392.528107,698.616516 393.148163,700.392456 390.997589,706.385193 
	C394.400665,705.993103 397.544250,704.136780 401.231201,705.559326 
M400.785126,732.770691 
	C404.667633,734.286194 408.347382,734.237549 411.353149,730.978088 
	C413.806091,728.318054 414.681732,724.949646 413.272125,721.685242 
	C410.414307,715.066956 404.619080,712.227600 397.860382,711.350769 
	C391.563629,710.533875 386.549988,713.545654 383.416656,719.062866 
	C381.907776,721.719788 382.357666,723.326965 385.007416,724.679382 
	C390.047272,727.251526 395.031555,729.932617 400.785126,732.770691 
z"/>
<path fill="#000000" opacity="1.000000" stroke="none" 
	d="
M294.705994,460.431946 
	C282.509644,482.720245 253.184555,477.733887 244.650162,460.561096 
	C239.709656,450.619843 240.665848,440.724152 247.287781,431.852417 
	C253.585754,423.414612 262.339233,420.229889 272.788574,421.734955 
	C277.010284,422.343048 278.769012,423.959442 277.369995,428.717468 
	C274.275604,439.241394 271.749207,449.932312 268.988495,460.554443 
	C268.450348,462.625214 267.744080,464.676849 268.251831,466.848236 
	C280.434113,468.856537 288.747925,460.396454 290.503510,449.357178 
	C291.173309,445.145447 291.396820,440.675385 288.947937,436.711700 
	C287.844788,434.926147 287.498444,433.358856 289.728485,432.140778 
	C291.897644,430.955963 293.801086,430.735657 295.250122,433.225800 
	C298.614349,439.007141 299.083740,445.210754 297.687469,451.571289 
	C297.048981,454.479828 295.845184,457.264313 294.705994,460.431946 
M269.212982,429.439209 
	C258.043457,427.976532 250.252197,434.314880 248.758820,446.079163 
	C247.634232,454.938080 253.414825,463.587524 261.467072,464.657532 
	C264.287109,453.117981 268.445374,441.872620 269.212982,429.439209 
z"/>
<path fill="#000000" opacity="1.000000" stroke="none" 
	d="
M754.446716,597.542236 
	C760.546509,599.909607 766.241638,602.249329 772.018311,604.366516 
	C775.109924,605.499695 774.304077,607.391541 773.572937,609.563843 
	C772.785339,611.903687 771.611572,612.748047 769.092957,611.782166 
	C754.489807,606.182312 739.850708,600.675903 725.218140,595.152832 
	C722.746948,594.220154 720.472290,593.418823 722.067017,589.870056 
	C723.523926,586.627930 725.394165,586.477539 728.439514,587.699463 
	C736.919983,591.102234 745.521973,594.202332 754.446716,597.542236 
z"/>
<path fill="#000000" opacity="1.000000" stroke="none" 
	d="
M640.971558,746.639771 
	C640.186829,747.440674 639.221741,748.387512 638.728821,747.745850 
	C636.995300,745.489014 634.557678,745.533630 632.165649,745.029907 
	C629.770996,744.525635 628.942322,740.724304 631.095581,739.714111 
	C633.692688,738.495667 635.520142,735.901428 637.869080,735.177246 
	C643.879883,733.324219 648.215088,728.470337 654.264709,726.952515 
	C657.352295,735.261719 652.845093,743.824707 644.496338,745.404663 
	C643.372986,745.617249 642.302917,746.111084 640.971558,746.639771 
z"/>
<path fill="#000000" opacity="1.000000" stroke="none" 
	d="
M367.400055,338.504700 
	C367.448853,341.317017 365.571136,341.945892 363.520905,342.651367 
	C352.411530,331.600555 342.830566,319.248077 332.421783,307.636475 
	C329.067780,303.894867 330.584839,301.138672 334.485870,298.403290 
	C338.826050,302.405151 342.267426,307.035370 345.972412,311.423798 
	C352.080566,318.658783 358.232361,325.856964 364.327271,333.103058 
	C365.606873,334.624390 366.855988,336.207336 367.400055,338.504700 
z"/>
<path fill="#000000" opacity="1.000000" stroke="none" 
	d="
M555.877808,280.283447 
	C547.446655,281.990997 540.436829,276.809479 532.652466,277.083344 
	C531.659241,277.118286 530.246887,276.457855 530.494446,275.457977 
	C531.661804,270.742493 528.752075,265.404388 532.693787,261.142212 
	C533.965820,259.766754 533.530212,258.017426 533.703003,256.390198 
	C534.418091,249.656631 532.123169,242.755127 536.335205,236.137573 
	C538.269897,233.097977 536.120361,228.322174 537.247681,224.085327 
	C537.987610,223.974731 538.956604,223.499710 539.509094,223.797516 
	C546.419556,227.522385 554.687927,225.205856 561.709473,229.052856 
	C564.629211,230.652573 568.501709,229.975113 571.294556,233.035355 
	C575.325378,237.452087 578.256714,242.584656 581.546875,247.452301 
	C583.283447,250.021484 583.396545,254.385880 581.900818,256.606781 
	C578.820923,261.179901 578.315796,266.794250 574.453186,271.111176 
	C569.424744,276.731079 563.557739,279.560242 555.877808,280.283447 
z"/>
<path fill="#000000" opacity="1.000000" stroke="none" 
	d="
M325.153595,668.895691 
	C321.787567,665.624756 318.520081,662.767029 315.650360,659.554077 
	C313.397308,657.031494 314.854492,653.493408 318.189026,652.829468 
	C327.692017,650.937378 335.152954,655.960144 336.011505,665.752258 
	C336.209045,668.005188 335.867218,670.340820 333.119965,671.415833 
	C329.884674,672.681824 327.348206,672.094055 325.153595,668.895691 
z"/>
<path fill="#000000" opacity="1.000000" stroke="none" 
	d="
M685.901245,338.822754 
	C689.937866,339.555878 692.717712,341.374390 694.696350,344.608002 
	C695.797119,346.406952 697.395691,347.920227 698.870667,349.466125 
	C700.439941,351.110870 701.675964,352.798706 700.536072,355.173492 
	C699.485840,357.361450 697.591614,358.133392 695.273132,358.270233 
	C690.004395,358.581268 681.430969,352.449921 680.115234,347.368317 
	C678.984192,342.999908 681.045837,339.717834 685.901245,338.822754 
z"/>
<path fill="#000000" opacity="1.000000" stroke="none" 
	d="
M745.605347,547.489990 
	C748.386780,535.987915 758.505859,530.333801 769.324402,533.882996 
	C776.412537,536.208374 781.633911,548.410339 778.161255,555.021301 
	C776.837341,557.541687 777.615479,560.516113 774.696655,562.880127 
	C767.926025,568.363708 759.224670,570.023132 751.962524,565.957703 
	C747.110596,563.241516 743.851562,554.028442 745.605347,547.489990 
z"/>
<path fill="#000000" opacity="1.000000" stroke="none" 
	d="
M703.078857,688.158813 
	C703.082275,693.710999 704.328430,698.907959 700.709717,703.742004 
	C697.788940,707.643616 686.844482,712.104919 682.492981,710.006409 
	C679.719543,708.668884 680.084045,706.088379 681.729492,704.246155 
	C684.916626,700.677612 688.226807,697.117249 691.992981,694.210449 
	C693.868225,692.763245 694.987183,690.814514 696.745544,689.403320 
	C698.583252,687.928467 700.238525,685.732788 703.078857,688.158813 
z"/>
<path fill="#000000" opacity="1.000000" stroke="none" 
	d="
M606.481628,297.876038 
	C600.856445,292.261139 600.734436,291.011292 603.403870,286.855530 
	C605.371887,283.791779 608.314026,284.302490 610.432617,284.979614 
	C615.526123,286.607483 620.421143,288.944794 625.231201,291.328949 
	C627.266968,292.337952 626.027527,297.868835 623.544800,299.702759 
	C621.403748,301.284271 608.845093,300.186859 606.481628,297.876038 
z"/>
<path fill="#000000" opacity="1.000000" stroke="none" 
	d="
M404.981873,730.479858 
	C400.013550,730.154236 396.300446,727.243164 391.959320,726.116699 
	C388.580261,725.239990 385.147064,718.358521 387.272034,717.025146 
	C390.208099,715.182678 393.675873,712.927307 397.376801,714.052063 
	C401.638763,715.347351 406.088196,716.252319 409.281036,720.246277 
	C412.884186,724.753296 413.233948,725.120361 408.785645,728.626526 
	C407.766205,729.430115 406.493683,729.912598 404.981873,730.479858 
z"/>
<path fill="#000000" opacity="1.000000" stroke="none" 
	d="
M252.686996,452.116272 
	C252.696426,448.392853 252.608398,445.089935 252.739761,441.795776 
	C253.007324,435.086884 261.233978,430.236755 268.390411,433.257263 
	C265.203369,436.507629 266.518524,441.358002 264.814819,444.476776 
	C262.263977,449.146179 261.289154,453.569031 260.983734,458.668945 
	C260.837189,461.115662 257.987915,461.155304 256.340057,459.613464 
	C254.370148,457.770325 251.978943,455.878967 252.686996,452.116272 
z"/>
</svg>